# xmcd
#
# Track frame offsets: 
#        150
#        27262
#        48725
#        80651
#        108425
#        136861
#        162266
#        184774
#
# Disc length: 2656 seconds
#
# Revision: 2
# Processed by: cddbd v1.5.2PL0 Copyright (c) Steve Scherf et al.
# Submitted via: ExactAudioCopy v1.0b1
#
DISCID=660a5e08
DTITLE=Bryce Janey - Live at J.M. O' Malley's
DYEAR=2001
DGENRE=Blues
TTITLE0=Hold On
TTITLE1=Long Time Runnin'
TTITLE2=Strat Blues
TTITLE3=Practice What You Preach
TTITLE4=Workin' Fool
TTITLE5=Sweet Baby Jane
TTITLE6=Walkin' Blues
TTITLE7=Trick Bag
EXTD=YEAR: 1990
EXTT0=
EXTT1=
EXTT2=
EXTT3=
EXTT4=
EXTT5=
EXTT6=
EXTT7=
PLAYORDER=
